#!OML:ASF X:\für Bonn\!DataBase\2005_08_10_Bjorn_Final\c3d\bjorn.ASF
:FULLY-SPECIFIED
:DEGREES
419
root 1.4035 18.9089 9.46523 -183.075 16.7216 173.847
lowerback -1.24247 1.70849 2.64106
upperback 13.0635 3.72047 -0.611202
thorax 15.2949 2.75273 -1.44695
lowerneck -3.38372 -1.52272 4.29033
upperneck 23.9208 3.36346 -14.8239
head 8.16918 1.60501 -5.37675
rclavicle 4.57205e-014 9.54166e-015
rhumerus -64.6417 -35.1527 -41.599
rradius 16.6257
rwrist 18.0132
rhand -10.5926 -6.02229
rfingers 7.12502
rthumb 15.4129 -35.4277
lclavicle 4.57205e-014 9.54166e-015
lhumerus 127.956 164.674 245.642
lradius 12.5325
lwrist -51.7296
lhand -12.1418 -7.29954
lfingers 7.12502
lthumb 13.9203 22.2145
rfemur 530.777 -172.339 -528.559
rtibia 35.8418
rfoot -21.7715 14.9667
rtoes -14.8379
lfemur 338.857 0.916538 343.93
ltibia 32.8521
lfoot -10.3681 -1.09614
ltoes -20.9006
420
root 1.3909 18.9198 9.52536 -183.043 16.4225 173.649
lowerback -1.07514 1.64238 2.50086
upperback 13.1235 3.67635 -0.643789
thorax 15.2506 2.72896 -1.41668
lowerneck -3.49146 -1.62092 4.30706
upperneck 23.991 3.32235 -15.082
head 8.2112 1.5698 -5.47612
rclavicle 3.57812e-015 -1.59028e-015
rhumerus -64.4568 -33.6871 -43.0859
rradius 17.116
rwrist 17.513
rhand -10.7502 -6.14246
rfingers 7.12502
rthumb 15.2612 -35.5595
lclavicle 3.57812e-015 -1.59028e-015
lhumerus 127.621 164.702 245.391
lradius 12.602
lwrist -51.1763
lhand -11.2845 -7.00803
lfingers 7.12502
lthumb 14.7464 22.4474
rfemur 530.459 -172.124 -528.747
rtibia 35.9519
rfoot -21.6002 14.9028
rtoes -14.6999
lfemur 339.026 1.33002 343.257
ltibia 33.3707
lfoot -10.8832 -0.416154
ltoes -20.9567
421
root 1.37937 18.9289 9.5857 -183.005 16.1305 173.538
lowerback -0.894058 1.57637 2.43027
upperback 13.1734 3.62308 -0.667586
thorax 15.189 2.70785 -1.41763
lowerneck -3.46683 -1.68609 4.28352
upperneck 23.9129 3.25649 -15.2081
head 8.17372 1.5313 -5.51827
rclavicle -3.77691e-014 -5.56597e-015
rhumerus -64.4455 -32.4476 -44.2405
rradius 17.5165
rwrist 17.3778
rhand -10.903 -6.22737
rfingers 7.12502
rthumb 15.1139 -35.6555
lclavicle -3.77691e-014 -5.56597e-015
lhumerus 127.291 164.707 245.073
lradius 12.7474
lwrist -50.8831
lhand -10.0171 -6.58147
lfingers 7.12502
lthumb 15.9672 22.7804
rfemur 530.156 -171.871 -528.841
rtibia 36.0751
rfoot -21.4325 14.8263
rtoes -14.6434
lfemur 339.249 1.73867 342.684
ltibia 33.9488
lfoot -11.4759 0.313412
ltoes -21.009
422
root 1.36896 18.9356 9.64573 -182.947 15.8823 173.441
lowerback -0.748199 1.50784 2.30631
upperback 13.2141 3.56189 -0.666646
thorax 15.1323 2.67195 -1.36143
lowerneck -3.40651 -1.72855 4.24574
upperneck 23.8282 3.21961 -15.3135
head 8.1305 1.50868 -5.54781
rclavicle -1.70955e-014 -2.62396e-014
rhumerus -64.4745 -31.3343 -45.1121
rradius 17.7866
rwrist 17.5295
rhand -11.0028 -5.99792
rfingers 7.12502
rthumb 15.0178 -35.4333
lclavicle -1.70955e-014 -2.62396e-014
lhumerus 126.965 164.405 244.547
lradius 12.7071
lwrist -50.7966
lhand -8.80404 -5.99634
lfingers 7.12502
lthumb 17.1351 23.2681
rfemur 529.817 -171.606 -528.924
rtibia 36.218
rfoot -21.2672 14.8254
rtoes -14.5644
lfemur 339.479 2.19527 342.138
ltibia 34.5759
lfoot -12.1108 1.0519
ltoes -21.0169
423
root 1.35844 18.9407 9.70643 -182.867 15.6326 173.432
lowerback -0.599014 1.42462 2.24942
upperback 13.2467 3.47091 -0.654289
thorax 15.0656 2.62823 -1.33431
lowerneck -3.32604 -1.75276 4.27939
upperneck 23.7295 3.21452 -15.4813
head 8.08296 1.50419 -5.60932
rclavicle -3.49861e-014 -2.94201e-014
rhumerus -64.4733 -30.3059 -45.9517
rradius 18.0293
rwrist 17.8269
rhand -11.0316 -5.84305
rfingers 7.12502
rthumb 14.99 -35.2805
lclavicle -3.49861e-014 -2.94201e-014
lhumerus 126.61 163.651 243.562
lradius 12.5003
lwrist -51.1367
lhand -7.543 -5.43278
lfingers 7.12502
lthumb 18.3485 23.7218
rfemur 529.478 -171.394 -528.902
rtibia 36.3771
rfoot -21.109 14.7739
rtoes -14.4372
lfemur 339.722 2.60337 341.7
ltibia 35.2383
lfoot -12.7829 1.81591
ltoes -20.9709
424
root 1.34906 18.9442 9.76604 -182.792 15.3982 173.437
lowerback -0.467114 1.34439 2.20649
upperback 13.2784 3.38412 -0.660046
thorax 15.0122 2.58951 -1.33319
lowerneck -3.19096 -1.78447 4.36144
upperneck 23.6215 3.1891 -15.6424
head 8.01932 1.49718 -5.67811
rclavicle -1.98785e-014 1.51076e-014
rhumerus -64.4113 -29.3018 -46.8828
rradius 18.2425
rwrist 18.1145
rhand -11.0305 -5.83575
rfingers 7.12502
rthumb 14.9911 -35.2731
lclavicle -1.98785e-014 1.51076e-014
lhumerus 126.235 162.82 242.463
lradius 12.3413
lwrist -51.5411
lhand -6.13703 -4.82755
lfingers 7.12502
lthumb 19.7006 24.1942
rfemur 529.139 -171.136 -528.867
rtibia 36.5526
rfoot -20.9906 14.745
rtoes -14.4794
lfemur 339.993 3.04929 341.288
ltibia 35.924
lfoot -13.4643 2.52685
ltoes -20.7882
425
root 1.33979 18.9456 9.82626 -182.714 15.1568 173.461
lowerback -0.347045 1.26993 2.17489
upperback 13.3149 3.30482 -0.661865
thorax 14.9735 2.55585 -1.33169
lowerneck -3.03948 -1.81693 4.47955
upperneck 23.4755 3.15261 -15.8242
head 7.93859 1.48688 -5.76012
rclavicle 1.19271e-014 -3.02153e-014
rhumerus -64.3536 -28.414 -47.6882
rradius 18.3825
rwrist 18.4184
rhand -11.0224 -5.8191
rfingers 7.12502
rthumb 14.9989 -35.2559
lclavicle 1.19271e-014 -3.02153e-014
lhumerus 125.96 162.301 241.736
lradius 12.2699
lwrist -51.4188
lhand -4.6004 -4.14975
lfingers 7.12502
lthumb 21.1773 24.7136
rfemur 528.794 -170.902 -528.808
rtibia 36.7383
rfoot -20.8624 14.743
rtoes -14.3666
lfemur 340.278 3.511 340.903
ltibia 36.6232
lfoot -14.125 3.24537
ltoes -20.9504
426
root 1.33086 18.9462 9.88607 -182.624 14.9386 173.534
lowerback -0.217573 1.20724 2.17405
upperback 13.3318 3.23092 -0.639968
thorax 14.9048 2.52405 -1.32181
lowerneck -2.87372 -1.84852 4.55247
upperneck 23.3563 3.1213 -15.9619
head 7.86452 1.48015 -5.81864
rclavicle 2.42517e-014 1.82882e-014
rhumerus -64.2869 -27.5464 -48.4346
rradius 18.4557
rwrist 18.7208
rhand -11.0329 -5.43403
rfingers 7.12502
rthumb 14.9888 -34.8716
lclavicle 2.42517e-014 1.82882e-014
lhumerus 125.818 162.265 241.582
lradius 12.2656
lwrist -50.6126
lhand -3.37532 -3.71653
lfingers 7.12502
lthumb 22.3537 25.0103
rfemur 528.444 -170.651 -528.701
rtibia 36.9375
rfoot -20.7321 14.755
rtoes -14.1802
lfemur 340.577 4.04422 340.57
ltibia 37.324
lfoot -14.7372 3.97637
ltoes -21.7095
